<svg width="60" height="60" viewBox="0 0 60 60" fill="none" xmlns="http://www.w3.org/2000/svg">
<path d="M30 4C29.4772 4.00003 28.9753 4.20475 28.6016 4.57031L6.78516 22.4141C6.75996 22.433 6.73521 22.4525 6.71094 22.4727L6.63672 22.5352V22.5391C6.43613 22.7259 6.27609 22.9521 6.16656 23.2034C6.05703 23.4547 6.00033 23.7258 6 24C6 24.5304 6.21071 25.0391 6.58579 25.4142C6.96086 25.7893 7.46957 26 8 26H10V48C10 50.21 11.79 52 14 52H46C48.21 52 50 50.21 50 48V26H52C52.5304 26 53.0391 25.7893 53.4142 25.4142C53.7893 25.0391 54 24.5304 54 24C54.0002 23.7252 53.9438 23.4533 53.8342 23.2013C53.7247 22.9492 53.5644 22.7225 53.3633 22.5352L53.332 22.5117C53.2882 22.472 53.2425 22.4342 53.1953 22.3984L50 19.7852V12C50 10.896 49.104 10 48 10H46C44.896 10 44 10.896 44 12V14.8789L31.3555 4.53516C30.987 4.19265 30.503 4.00157 30 4ZM36 30H44V46H36V30Z" fill="#23022E"/>
</svg>
