<svg width="48" height="48" viewBox="0 0 48 48" fill="none" xmlns="http://www.w3.org/2000/svg">
<path d="M24 0C23.4772 3.40666e-05 22.9753 0.20475 22.6016 0.570312L0.785156 18.4141C0.759958 18.433 0.735212 18.4525 0.710938 18.4727L0.636719 18.5352V18.5391C0.436125 18.7259 0.276093 18.9521 0.166561 19.2034C0.0570281 19.4547 0.000334149 19.7258 0 20C0 20.5304 0.210714 21.0391 0.585786 21.4142C0.960859 21.7893 1.46957 22 2 22H4V44C4 46.21 5.79 48 8 48H40C42.21 48 44 46.21 44 44V22H46C46.5304 22 47.0391 21.7893 47.4142 21.4142C47.7893 21.0391 48 20.5304 48 20C48.0002 19.7252 47.9438 19.4533 47.8342 19.2013C47.7247 18.9492 47.5644 18.7225 47.3633 18.5352L47.332 18.5117C47.2882 18.472 47.2425 18.4342 47.1953 18.3984L44 15.7852V8C44 6.896 43.104 6 42 6H40C38.896 6 38 6.896 38 8V10.8789L25.3555 0.535156C24.987 0.192652 24.503 0.00157067 24 0ZM30 26H38V42H30V26Z" fill="#A8CD7F"/>
</svg>
