<svg width="144" height="140" viewBox="0 0 144 140" fill="none" xmlns="http://www.w3.org/2000/svg">
<mask id="mask0_2_331" style="mask-type:luminance" maskUnits="userSpaceOnUse" x="0" y="0" width="144" height="140">
<path d="M144 0H0V140H144V0Z" fill="white"/>
</mask>
<g mask="url(#mask0_2_331)">
<path d="M72 139.16C111.764 139.16 144 107.82 144 69.16C144 30.5001 111.764 -0.839996 72 -0.839996C32.2355 -0.839996 0 30.5001 0 69.16C0 107.82 32.2355 139.16 72 139.16Z" fill="#23022E"/>
<path d="M72 137.76C110.969 137.76 142.56 107.047 142.56 69.16C142.56 31.2733 110.969 0.559998 72 0.559998C33.0308 0.559998 1.44 31.2733 1.44 69.16C1.44 107.047 33.0308 137.76 72 137.76Z" fill="#ADA8B6"/>
<path d="M72 136.36C110.174 136.36 141.12 106.274 141.12 69.16C141.12 32.0465 110.174 1.95999 72 1.95999C33.8261 1.95999 2.88 32.0465 2.88 69.16C2.88 106.274 33.8261 136.36 72 136.36Z" fill="#23022E"/>
<path d="M93.8592 88.06C93.9744 89.74 94.032 91.028 94.032 91.924C94.032 94.612 93.6864 97.3 92.9952 99.988C90.4608 99.988 86.6592 100.044 81.5904 100.156L70.3584 100.24C65.232 100.24 60.4512 100.072 56.016 99.736V98.14L54.288 98.056C54.288 95.144 54.2592 91.756 54.2016 87.892C54.144 84.028 54.0864 81.088 54.0288 79.072C53.856 73.024 53.7696 66.948 53.7696 60.844C53.7696 53.788 54 46.508 54.4608 39.004C58.9536 38.78 64.1376 38.612 70.0128 38.5C75.9456 38.332 80.8416 38.248 84.7008 38.248C89.2512 38.248 91.6416 38.584 91.872 39.256C91.872 39.648 91.9584 39.956 92.1312 40.18C92.3616 40.348 92.6496 40.488 92.9952 40.6C93.3408 40.712 93.5424 40.824 93.6 40.936V40.852C93.8304 42.14 93.9456 43.624 93.9456 45.304C93.9456 46.2 93.888 47.544 93.7728 49.336C93.6576 51.24 93.6 52.696 93.6 53.704C90.6624 54.376 86.9472 54.712 82.4544 54.712H79.344L75.9744 54.628C74.1888 54.628 72.4032 54.712 70.6176 54.88C70.6176 55.72 70.56 56.812 70.4448 58.156L70.3584 60.928V61.684L71.9136 61.768L75.2832 61.684C75.5712 61.684 77.0112 61.768 79.6032 61.936C79.6608 62.104 79.7184 62.384 79.776 62.776C79.8336 63.112 79.9488 63.336 80.1216 63.448C80.352 63.56 80.7552 63.616 81.3312 63.616C81.6192 65.072 81.7632 66.78 81.7632 68.74C81.7632 70.476 81.7344 71.792 81.6768 72.688L81.5904 76.72C79.8624 77.168 77.6448 77.392 74.9376 77.392C72.8064 77.392 71.5104 77.448 71.0496 77.56C70.8768 78.4 70.7904 79.688 70.7904 81.424C70.7904 83.104 70.8192 84.308 70.8768 85.036C77.7888 85.372 83.2608 85.54 87.2928 85.54C88.6752 85.54 90.288 85.484 92.1312 85.372V86.38L92.2176 87.136C92.9088 87.136 93.456 87.108 93.8592 87.052V88.06ZM91.2672 86.296C90.4032 86.352 89.1648 86.38 87.552 86.38C86.112 86.38 84.4416 86.352 82.5408 86.296C80.64 86.24 79.1712 86.184 78.1344 86.128C75.024 85.96 71.856 85.876 68.6304 85.876L68.544 85.792C68.3136 84.392 68.1984 82.376 68.1984 79.744C68.1984 77.952 68.3136 76.468 68.544 75.292C68.7744 75.124 69.2928 75.012 70.0992 74.956C70.9056 74.9 71.7984 74.872 72.7776 74.872C75.7728 74.872 77.8464 74.704 78.9984 74.368L79.0848 67.06C79.0848 65.1 78.9984 63.644 78.8256 62.692V62.608C77.2704 62.608 76.0896 62.58 75.2832 62.524C72.1152 62.524 69.7536 62.468 68.1984 62.356L68.112 62.272C67.8816 61.432 67.7664 60.368 67.7664 59.08C67.7664 58.296 67.824 57.176 67.9392 55.72L68.0256 52.444L68.3712 52.36C69.408 52.248 70.5312 52.192 71.7408 52.192C72.9504 52.192 73.7568 52.192 74.16 52.192H80.9856C85.1904 52.192 88.5312 51.912 91.008 51.352V51.268L91.0944 47.32C91.2096 45.528 91.2672 44.184 91.2672 43.288C91.2672 42 91.1808 40.684 91.008 39.34C91.008 39.172 88.9056 39.088 84.7008 39.088C75.7152 39.088 65.8944 39.34 55.2384 39.844C54.8928 45.276 54.72 51.996 54.72 60.004C54.72 64.148 54.7776 70.308 54.8928 78.484C55.0656 84.7 55.152 90.972 55.152 97.3C58.5504 97.58 62.7264 97.72 67.68 97.72C70.1568 97.72 73.9872 97.664 79.1712 97.552L90.576 97.468C91.152 95.284 91.44 92.904 91.44 90.328C91.44 89.432 91.3824 88.144 91.2672 86.464V86.296Z" fill="#573280"/>
<path d="M92.9952 87.22C93.1104 88.9 93.168 90.188 93.168 91.084C93.168 93.772 92.8224 96.46 92.1312 99.148C89.5968 99.148 85.7952 99.204 80.7264 99.316L69.4944 99.4C64.368 99.4 59.5872 99.232 55.152 98.896V97.3L53.424 97.216C53.424 94.304 53.3952 90.916 53.3376 87.052C53.28 83.188 53.2224 80.248 53.1648 78.232C52.992 72.184 52.9056 66.108 52.9056 60.004C52.9056 52.948 53.136 45.668 53.5968 38.164C58.0896 37.94 63.2736 37.772 69.1488 37.66C75.0816 37.492 79.9776 37.408 83.8368 37.408C88.3872 37.408 90.7776 37.744 91.008 38.416C91.008 38.808 91.0944 39.116 91.2672 39.34C91.4976 39.508 91.7856 39.648 92.1312 39.76C92.4768 39.872 92.6784 39.984 92.736 40.096V40.012C92.9664 41.3 93.0816 42.784 93.0816 44.464C93.0816 45.36 93.024 46.704 92.9088 48.496C92.7936 50.4 92.736 51.856 92.736 52.864C89.7984 53.536 86.0832 53.872 81.5904 53.872H78.48L75.1104 53.788C73.3248 53.788 71.5392 53.872 69.7536 54.04C69.7536 54.88 69.696 55.972 69.5808 57.316L69.4944 60.088V60.844L71.0496 60.928L74.4192 60.844C74.7072 60.844 76.1472 60.928 78.7392 61.096C78.7968 61.264 78.8544 61.544 78.912 61.936C78.9696 62.272 79.0848 62.496 79.2576 62.608C79.488 62.72 79.8912 62.776 80.4672 62.776C80.7552 64.232 80.8992 65.94 80.8992 67.9C80.8992 69.636 80.8704 70.952 80.8128 71.848L80.7264 75.88C78.9984 76.328 76.7808 76.552 74.0736 76.552C71.9424 76.552 70.6464 76.608 70.1856 76.72C70.0128 77.56 69.9264 78.848 69.9264 80.584C69.9264 82.264 69.9552 83.468 70.0128 84.196C76.9248 84.532 82.3968 84.7 86.4288 84.7C87.8112 84.7 89.424 84.644 91.2672 84.532V85.54L91.3536 86.296C92.0448 86.296 92.592 86.268 92.9952 86.212V87.22ZM90.4032 85.456C89.5392 85.512 88.3008 85.54 86.688 85.54C85.248 85.54 83.5776 85.512 81.6768 85.456C79.776 85.4 78.3072 85.344 77.2704 85.288C74.16 85.12 70.992 85.036 67.7664 85.036L67.68 84.952C67.4496 83.552 67.3344 81.536 67.3344 78.904C67.3344 77.112 67.4496 75.628 67.68 74.452C67.9104 74.284 68.4288 74.172 69.2352 74.116C70.0416 74.06 70.9344 74.032 71.9136 74.032C74.9088 74.032 76.9824 73.864 78.1344 73.528L78.2208 66.22C78.2208 64.26 78.1344 62.804 77.9616 61.852V61.768C76.4064 61.768 75.2256 61.74 74.4192 61.684C71.2512 61.684 68.8896 61.628 67.3344 61.516L67.248 61.432C67.0176 60.592 66.9024 59.528 66.9024 58.24C66.9024 57.456 66.96 56.336 67.0752 54.88L67.1616 51.604L67.5072 51.52C68.544 51.408 69.6672 51.352 70.8768 51.352C72.0864 51.352 72.8928 51.352 73.296 51.352H80.1216C84.3264 51.352 87.6672 51.072 90.144 50.512V50.428L90.2304 46.48C90.3456 44.688 90.4032 43.344 90.4032 42.448C90.4032 41.16 90.3168 39.844 90.144 38.5C90.144 38.332 88.0416 38.248 83.8368 38.248C74.8512 38.248 65.0304 38.5 54.3744 39.004C54.0288 44.436 53.856 51.156 53.856 59.164C53.856 63.308 53.9136 69.468 54.0288 77.644C54.2016 83.86 54.288 90.132 54.288 96.46C57.6864 96.74 61.8624 96.88 66.816 96.88C69.2928 96.88 73.1232 96.824 78.3072 96.712L89.712 96.628C90.288 94.444 90.576 92.064 90.576 89.488C90.576 88.592 90.5184 87.304 90.4032 85.624V85.456Z" fill="#ADA8B6"/>
</g>
</svg>
