<svg width="60" height="60" viewBox="0 0 60 60" fill="none" xmlns="http://www.w3.org/2000/svg">
<g clip-path="url(#clip0_2_37)">
<path d="M31.9422 0.329666H27.9906V10.7289H31.9422V0.329666Z" fill="#A8CD7F"/>
<path d="M31.9422 49.2039H27.9906V59.6031H31.9422V49.2039Z" fill="#A8CD7F"/>
<path d="M10.7288 27.9906H0.329651V31.9422H10.7288V27.9906Z" fill="#A8CD7F"/>
<path d="M59.6031 27.9906H49.2039V31.9422H59.6031V27.9906Z" fill="#A8CD7F"/>
<path d="M49.5253 7.61305L39.1788 17.9596C36.5457 15.9311 33.3443 14.8187 29.9664 14.8187C21.6141 14.8187 14.8187 21.6141 14.8187 29.9664C14.8187 33.345 15.9311 36.5464 17.9595 39.1795L7.61304 49.5253L10.4068 52.3191L52.319 10.4068L49.5253 7.61305Z" fill="#A8CD7F"/>
<path d="M10.4065 7.61575L7.61237 10.4099L14.9656 17.7632L17.7598 14.969L10.4065 7.61575Z" fill="#A8CD7F"/>
<path d="M44.9663 42.1694L42.1722 44.9636L49.5254 52.3168L52.3196 49.5227L44.9663 42.1694Z" fill="#A8CD7F"/>
</g>
<defs>
<clipPath id="clip0_2_37">
<rect width="60" height="60" fill="white"/>
</clipPath>
</defs>
</svg>
