<svg width="60" height="60" viewBox="0 0 60 60" fill="none" xmlns="http://www.w3.org/2000/svg">
<g clip-path="url(#clip0_2_160)">
<path d="M31.9422 0.329712H27.9906V10.7289H31.9422V0.329712Z" fill="#23022E"/>
<path d="M31.9422 49.204H27.9906V59.6032H31.9422V49.204Z" fill="#23022E"/>
<path d="M10.7288 27.9906H0.329651V31.9422H10.7288V27.9906Z" fill="#23022E"/>
<path d="M59.6031 27.9906H49.2039V31.9422H59.6031V27.9906Z" fill="#23022E"/>
<path d="M49.5253 7.61316L39.1788 17.9597C36.5457 15.9312 33.3443 14.8188 29.9664 14.8188C21.6141 14.8188 14.8187 21.6142 14.8187 29.9665C14.8187 33.3451 15.9311 36.5465 17.9595 39.1796L7.61304 49.5254L10.4068 52.3192L52.319 10.4069L49.5253 7.61316Z" fill="#23022E"/>
<path d="M10.4065 7.61576L7.61237 10.4099L14.9656 17.7632L17.7598 14.969L10.4065 7.61576Z" fill="#23022E"/>
<path d="M44.9663 42.1695L42.1722 44.9636L49.5254 52.3169L52.3196 49.5227L44.9663 42.1695Z" fill="#23022E"/>
</g>
<defs>
<clipPath id="clip0_2_160">
<rect width="60" height="60" fill="white"/>
</clipPath>
</defs>
</svg>
